<?xml version="1.0" encoding="iso-8859-1"?>
<!-- Uploaded to: SVG Repo, www.svgrepo.com, Generator: SVG Repo Mixer Tools -->
<!DOCTYPE svg PUBLIC "-//W3C//DTD SVG 1.1//EN" "http://www.w3.org/Graphics/SVG/1.1/DTD/svg11.dtd">
<svg fill="#000000" height="800px" width="800px" version="1.1" id="Capa_1" xmlns="http://www.w3.org/2000/svg" xmlns:xlink="http://www.w3.org/1999/xlink" 
	 viewBox="0 0 297 297" xml:space="preserve">
<g>
	<path d="M286.776,37.828H27.093c-5.646,0-10.224,4.578-10.224,10.224s4.578,10.224,10.224,10.224h249.46v180.449H58.787
		c-21.14,0-38.339-17.199-38.339-38.339c0-16.816,10.887-31.127,25.978-36.283l-7.342,10.485c-3.239,4.626-2.115,11.001,2.51,14.239
		c1.785,1.25,3.83,1.85,5.856,1.85c3.223,0,6.395-1.521,8.384-4.36l21.477-30.671c1.556-2.221,2.165-4.97,1.693-7.64
		c-0.47-2.671-1.983-5.044-4.204-6.6L44.128,119.93c-4.625-3.238-11-2.115-14.238,2.511c-3.239,4.625-2.115,11,2.511,14.238
		l10.262,7.186C18.065,150.894,0,173.562,0,200.386c0,32.415,26.371,58.787,58.787,58.787h227.99
		c5.646,0,10.224-4.578,10.224-10.224V48.052C297,42.406,292.422,37.828,286.776,37.828z"/>
	<path d="M138.666,173.754c0-5.646-4.578-10.224-10.224-10.224s-10.224,4.578-10.224,10.224c0,16.717,14.384,30.761,33.671,34.495
		v9.89c0,5.646,4.578,10.224,10.224,10.224c5.646,0,10.224-4.578,10.224-10.224v-9.89c19.287-3.734,33.671-17.778,33.671-34.495
		c0-16.717-14.384-30.762-33.671-34.496v-29.421c7.687,2.528,13.224,7.719,13.224,13.41c0,5.646,4.578,10.224,10.224,10.224
		s10.224-4.578,10.224-10.224c0-16.717-14.384-30.761-33.671-34.495v-9.89c0-5.646-4.578-10.224-10.224-10.224
		c-5.646,0-10.224,4.578-10.224,10.224v9.89c-19.287,3.734-33.671,17.778-33.671,34.495c0,16.717,14.384,30.762,33.671,34.496
		v29.421C144.203,184.635,138.666,179.444,138.666,173.754z M185.561,173.754c0,5.69-5.537,10.881-13.224,13.41v-26.82
		C180.024,162.872,185.561,168.063,185.561,173.754z M138.666,123.246c0-5.69,5.537-10.881,13.224-13.41v26.82
		C144.203,134.128,138.666,128.937,138.666,123.246z"/>
</g>
</svg>