<?xml version="1.0" encoding="iso-8859-1"?>
<!-- Uploaded to: SVG Repo, www.svgrepo.com, Generator: SVG Repo Mixer Tools -->
<svg height="800px" width="800px" version="1.1" id="Layer_1" xmlns="http://www.w3.org/2000/svg" xmlns:xlink="http://www.w3.org/1999/xlink" 
	 viewBox="0 0 512 512" xml:space="preserve">
<path style="fill:#2633D8;" d="M120.433,139.63c12.853,0,23.273-10.42,23.273-23.273V93.085H256h112.294v23.273
	c0,12.853,10.42,23.273,23.273,23.273c12.853,0,23.273-10.42,23.273-23.273V69.812c0-12.853-10.42-23.273-23.273-23.273H279.273
	v-23.26c0-12.853-10.42-23.273-23.273-23.273c-12.853,0-23.273,10.42-23.273,23.273v23.26H120.433
	c-12.853,0-23.273,10.42-23.273,23.273v46.545C97.161,129.21,107.58,139.63,120.433,139.63z"/>
<path style="fill:#EFC27B;" d="M120.433,182.108c-38.498,0-69.818,31.32-69.818,69.818s31.32,69.818,69.818,69.818
	s69.818-31.32,69.818-69.818S158.933,182.108,120.433,182.108z"/>
<path style="fill:#5286FA;" d="M120.433,368.289C54.025,368.289,0,422.315,0,488.721c0,12.853,10.42,23.273,23.273,23.273h97.161
	h97.159c12.853,0,23.273-10.42,23.273-23.273C240.865,422.315,186.84,368.289,120.433,368.289z"/>
<path style="fill:#ECB45C;" d="M50.615,251.926c0,38.498,31.32,69.818,69.818,69.818V182.108
	C81.936,182.108,50.615,213.428,50.615,251.926z"/>
<path style="fill:#3D6DEB;" d="M0,488.721c0,12.853,10.42,23.273,23.273,23.273h97.161V368.289C54.025,368.289,0,422.315,0,488.721z
	"/>
<path style="fill:#EFC27B;" d="M391.567,182.108c-38.498,0-69.818,31.32-69.818,69.818s31.32,69.818,69.818,69.818
	s69.818-31.32,69.818-69.818S430.064,182.108,391.567,182.108z"/>
<path style="fill:#00E7F0;" d="M391.567,368.289c-66.406,0-120.432,54.025-120.432,120.432c0,12.853,10.42,23.273,23.273,23.273
	h97.159h97.161c12.853,0,23.273-10.42,23.273-23.273C512,422.315,457.975,368.289,391.567,368.289z"/>
<path style="fill:#ECB45C;" d="M321.749,251.926c0,38.498,31.32,69.818,69.818,69.818V182.108
	C353.067,182.108,321.749,213.428,321.749,251.926z"/>
<path style="fill:#00D7DF;" d="M271.135,488.721c0,12.853,10.42,23.273,23.273,23.273h97.159V368.289
	C325.16,368.289,271.135,422.315,271.135,488.721z"/>
</svg>